<?xml version="1.0" encoding="UTF-8" standalone="no"?>
<!--part of the rodentia icon theme by sixsixfive released under CC0 (https://creativecommons.org/publicdomain/zero/1.0/) on openclipart-->
<svg xmlns="http://www.w3.org/2000/svg" xmlns:xlink="http://www.w3.org/1999/xlink" viewBox="0 0 48 48">
 <defs id="0">
  <linearGradient id="8">
   <stop id="G" stop-color="#fff"/>
   <stop id="H" offset="1" stop-color="#fff" stop-opacity="0"/>
  </linearGradient>
  <linearGradient id="9">
   <stop id="I" stop-color="#fff" stop-opacity="0.5"/>
   <stop id="J" offset="1" stop-color="#fff" stop-opacity="0"/>
  </linearGradient>
  <linearGradient id="A">
   <stop id="K" stop-color="#2e3436"/>
   <stop id="L" offset="1" stop-color="#2e3436" stop-opacity="0"/>
  </linearGradient>
  <linearGradient id="B">
   <stop id="M" stop-color="#eee"/>
   <stop id="N" offset="1" stop-color="#dcdcdc"/>
  </linearGradient>
  <radialGradient cx="60.05" cy="51.39" r="15.03" id="C" xlink:href="#B" gradientUnits="userSpaceOnUse" gradientTransform="matrix(-1.404511,1.1888571,-1,-1.1813958,199.73811,11.750541)"/>
  <radialGradient cx="25.02" cy="44.3" r="16.727" id="D" xlink:href="#A" gradientUnits="userSpaceOnUse" gradientTransform="matrix(1,0,0,0.11504424,0,39.202918)"/>
  <linearGradient y1="5.265" x2="0" y2="42.603" id="E" xlink:href="#9" gradientUnits="userSpaceOnUse"/>
  <linearGradient x1="-4.455" y1="-33.449" x2="31.07" y2="39.677" id="F" xlink:href="#8" gradientUnits="userSpaceOnUse"/>
 </defs>
 <path d="m 41.743937,44.299297 a 16.727181,1.9243659 0 1 1 -33.4543614,0 16.727181,1.9243659 0 1 1 33.4543614,0 z" transform="matrix(1,0,0,1.4615385,-1.0167561,-21.157663)" id="1" opacity="0.8" fill="url(#D)"/>
 <path d="M 44,24 A 20,19.997948 0 1 1 4.0000001,24 20,19.997948 0 1 1 44,24 z" id="2" fill="#445800"/>
 <path d="M 22.75,5.375 C 8.615336,5.6267023 0.00192621,23.952757 8.9375,35.0625 L 8.90625,35.09375 C 17.018382,47.079005 37.344698,44.11383 41.5625,30.25 l 0.03125,0 c 0.0076,-0.01959 -0.0075,-0.0429 0,-0.0625 C 46.258402,17.976792 35.858956,4.2337465 22.8125,5.375 c -0.02148,0.00188 -0.041,-0.00196 -0.0625,0 z" id="3" fill="#8bb300"/>
 <path d="m 23.9375,9.0625 c -3.819668,0 -7.636552,1.467986 -10.53125,4.375 -5.7899419,5.814574 -5.7899338,15.310422 0,21.125 5.790748,5.815389 15.271754,5.815389 21.0625,0 1.362087,-1.371551 1.367721,-3.598902 0,-4.96875 -1.368843,-1.370993 -3.601634,-1.37662 -4.96875,0 -3.10592,3.119133 -8.019079,3.119137 -11.125,0 -3.105332,-3.118551 -3.105328,-8.068953 0,-11.1875 3.105921,-3.11914 8.01908,-3.11914 11.125,0 1.015392,1.03064 2.580703,1.342522 3.90625,0.78125 C 34.742995,18.621479 35.537235,17.273489 35.5,15.84375 35.478232,14.940893 35.127138,14.086329 34.46875,13.4375 31.574053,10.530485 27.757168,9.0625 23.9375,9.0625 z m 9.78125,10.3125 c 0.0043,-6.97e-4 -0.160508,0.03233 -0.15625,0.03125 0.0043,-0.0011 -0.129143,0.03271 -0.125,0.03125 0.0041,-0.0015 -0.128995,0.06433 -0.125,0.0625 0.004,-0.0018 -0.128814,0.06468 -0.125,0.0625 0.0038,-0.0022 -0.128602,0.06502 -0.125,0.0625 0.0036,-0.0025 -0.128361,0.09658 -0.125,0.09375 0.0034,-0.0028 -0.09684,0.09687 -0.09375,0.09375 0.0031,-0.0031 -0.09655,0.128388 -0.09375,0.125 0.0028,-0.0034 -0.09623,0.09738 -0.09375,0.09375 0.0025,-0.0036 -0.06465,0.128835 -0.0625,0.125 0.0021,-0.0038 -0.06429,0.129012 -0.0625,0.125 0.0018,-0.004 -0.06392,0.129157 -0.0625,0.125 0.0014,-0.0042 -0.03229,0.129269 -0.03125,0.125 10e-4,-0.0043 -0.03191,0.160595 -0.03125,0.15625 1.64e-4,-0.0011 0.0014,0.01802 0,0.03125 l -8.6875,0 c -1.188832,-0.01687 -2.283699,0.607585 -2.875,1.625 -0.59128,1.017382 -0.59128,2.295117 0,3.3125 0.5913,1.017411 1.68616,1.641882 2.875,1.625 l 8.6875,0 c -2.04e-4,-0.0033 4.25e-4,0.128259 0,0.125 -4.25e-4,-0.0033 0.03189,0.09697 0.03125,0.09375 -6.43e-4,-0.0032 8.59e-4,0.09692 0,0.09375 -8.59e-4,-0.0032 0.03232,0.09686 0.03125,0.09375 -0.0011,-0.0031 0.06378,0.128028 0.0625,0.125 -0.0013,-0.003 0.03273,0.09669 0.03125,0.09375 -0.0015,-0.0029 0.06417,0.09658 0.0625,0.09375 -0.0017,-0.0028 0.03311,0.06521 0.03125,0.0625 -0.0019,-0.0027 0.06454,0.09633 0.0625,0.09375 -0.002,-0.0026 0.09596,0.09618 0.09375,0.09375 -0.0022,-0.0024 0.06487,0.06478 0.0625,0.0625 -0.0024,-0.0023 0.06502,0.06462 0.0625,0.0625 -0.0025,-0.0021 0.0964,0.06444 0.09375,0.0625 -0.0027,-0.0019 0.09653,0.06426 0.09375,0.0625 -0.0028,-0.0018 0.09664,0.06407 0.09375,0.0625 -0.0029,-0.0016 0.09674,0.03262 0.09375,0.03125 -0.003,-0.0014 0.09682,0.06367 0.09375,0.0625 -0.0031,-0.0012 0.0969,0.03221 0.09375,0.03125 -0.0031,-9.56e-4 0.09695,0.03199 0.09375,0.03125 -0.0032,-7.42e-4 0.128245,5.24e-4 0.125,0 -0.0032,-5.24e-4 0.09702,0.03156 0.09375,0.03125 -0.0033,-3.05e-4 0.09704,8.4e-5 0.09375,0 -0.0033,-8.4e-5 0.128284,-1.38e-4 0.125,0 -0.0033,1.38e-4 0.09702,-3.59e-4 0.09375,0 -0.0033,3.59e-4 0.09698,-0.03183 0.09375,-0.03125 -0.0032,5.78e-4 0.128189,-7.95e-4 0.125,0 -0.0032,7.95e-4 0.09688,-0.03226 0.09375,-0.03125 -0.0031,0.001 0.0968,-0.06372 0.09375,-0.0625 -0.0031,0.0012 0.09671,-0.03267 0.09375,-0.03125 -0.003,0.0014 0.09661,-0.03287 0.09375,-0.03125 -0.0018,9.94e-4 0.03564,-0.01489 0.0625,-0.03125 0.01679,-0.01022 0.03231,-0.03194 0.03125,-0.03125 l 2.625,-1.53125 2.6875,-1.5625 c -6.68e-4,3.72e-4 0.02378,0.0045 0.03125,0 0.02489,-0.01505 0.06464,-0.06389 0.0625,-0.0625 -0.0028,0.0018 0.0964,-0.06449 0.09375,-0.0625 -0.0027,0.002 0.09626,-0.06467 0.09375,-0.0625 -0.0025,0.0022 0.06486,-0.06483 0.0625,-0.0625 -0.0024,0.0023 0.06469,-0.09624 0.0625,-0.09375 -0.0022,0.0025 0.09577,-0.06513 0.09375,-0.0625 -0.002,0.0026 0.06433,-0.09651 0.0625,-0.09375 -0.0018,0.0028 0.03289,-0.09663 0.03125,-0.09375 -0.0016,0.0029 0.06394,-0.09673 0.0625,-0.09375 -0.0014,0.003 0.03249,-0.09682 0.03125,-0.09375 -0.0012,0.0031 0.03228,-0.0969 0.03125,-0.09375 -10e-4,0.0032 0.03206,-0.128213 0.03125,-0.125 -8.1e-4,0.0032 0.03184,-0.09701 0.03125,-0.09375 -5.9e-4,0.0033 0.03162,-0.09704 0.03125,-0.09375 -3.67e-4,0.0033 1.42e-4,-0.128311 0,-0.125 -1.42e-4,0.0033 -8.3e-5,-0.09706 0,-0.09375 8.3e-5,0.0033 -3.08e-4,-0.09705 0,-0.09375 3.08e-4,0.0033 -0.03178,-0.128271 -0.03125,-0.125 5.31e-4,0.0033 -7.52e-4,-0.09698 0,-0.09375 7.52e-4,0.0032 -0.03222,-0.09692 -0.03125,-0.09375 9.69e-4,0.0032 -0.03243,-0.128096 -0.03125,-0.125 0.0012,0.0031 -0.06389,-0.09676 -0.0625,-0.09375 0.0014,0.003 -0.03284,-0.09666 -0.03125,-0.09375 0.0016,0.0029 -0.06428,-0.09654 -0.0625,-0.09375 0.0018,0.0028 -0.06447,-0.06516 -0.0625,-0.0625 0.002,0.0027 -0.06465,-0.09627 -0.0625,-0.09375 0.0021,0.0025 -0.06481,-0.09612 -0.0625,-0.09375 0.0023,0.0024 -0.09622,-0.06471 -0.09375,-0.0625 0.0025,0.0022 -0.06511,-0.06454 -0.0625,-0.0625 0.0026,0.002 -0.0965,-0.06435 -0.09375,-0.0625 0.0027,0.0019 -0.09661,-0.06416 -0.09375,-0.0625 0.002,0.0012 -0.03455,-0.01622 -0.0625,-0.03125 l -0.03125,0 -2.65625,-1.53125 -0.03125,0 -2.65625,-1.53125 0,0.03125 c 0.002,0.0012 -0.06453,-0.03236 -0.0625,-0.03125 0.002,0.0011 -0.06458,-0.06352 -0.0625,-0.0625 0.0021,0.001 -0.06463,-0.03217 -0.0625,-0.03125 0.0021,9.16e-4 -0.06467,-8.14e-4 -0.0625,0 6.51e-4,2.44e-4 -0.02226,0.0031 -0.03125,0 0.0021,0.0012 -0.06466,-0.03233 -0.0625,-0.03125 0.0022,0.0011 -0.06471,-0.03222 -0.0625,-0.03125 a 0.85238522,0.85238522 0 0 0 -0.0625,0 c 0.0014,2.98e-4 -0.0097,-0.02705 -0.03125,-0.03125 a 0.85238522,0.85238522 0 0 0 -0.03125,0 0.85238522,0.85238522 0 0 0 -0.15625,-0.03125 c 0.0043,3.83e-4 -0.129321,0 -0.125,0 0.0043,0 -0.129304,3.83e-4 -0.125,0 a 0.85238522,0.85238522 0 0 0 -0.0625,0 z" id="4" fill="#445800"/>
 <path d="m 23.9375,9.90625 c -3.601601,0 -7.206361,1.38224 -9.9375,4.125 -5.4622746,5.485513 -5.4622676,14.451983 0,19.9375 5.462275,5.485518 14.412727,5.485518 19.875,0 1.038829,-1.046047 1.041631,-2.737999 0,-3.78125 -1.041617,-1.043253 -2.742423,-1.046049 -3.78125,0 -3.425522,3.440095 -8.886977,3.440099 -12.3125,0 -3.425522,-3.440104 -3.425518,-8.9349 0,-12.375 3.425523,-3.440102 8.886978,-3.440102 12.3125,0 0.76441,0.788702 1.958891,1.021351 2.96875,0.59375 1.009856,-0.427606 1.622404,-1.431012 1.59375,-2.53125 -0.01676,-0.695142 -0.287053,-1.356728 -0.78125,-1.84375 -2.731138,-2.74276 -6.335899,-4.125 -9.9375,-4.125 z m 10.03125,10.3125 A 0.70604547,0.70604547 0 0 0 33.25,20.9375 l 0,0.625 -9.53125,0 c -0.872937,-0.01239 -1.684929,0.461547 -2.125,1.21875 -0.440071,0.757205 -0.440071,1.680294 0,2.4375 0.440071,0.757202 1.252063,1.231146 2.125,1.21875 l 9.53125,0 0,0.75 a 0.70604547,0.70604547 0 0 0 1.09375,0.59375 L 37,26.21875 l 2.71875,-1.5625 a 0.70604547,0.70604547 0 0 0 -0.03125,-1.25 L 36.96875,21.875 34.28125,20.34375 a 0.70604547,0.70604547 0 0 0 -0.25,-0.09375 0.70604547,0.70604547 0 0 0 -0.0625,-0.03125 z" id="5" fill="#eeeeec"/>
 <path d="m 25.15625,5.78125 c -0.763464,-0.037384 -1.558056,-0.00768 -2.34375,0.0625 -0.01047,9.351e-4 -0.02078,-9.548e-4 -0.03125,0 C 9.0161224,6.0630086 0.55495532,24.017662 9.3125,34.8125 c 7.891282,11.658961 27.769934,8.786369 31.84375,-4.71875 0.0029,-0.0095 -0.0029,-0.02172 0,-0.03125 4.28647,-11.160212 -4.405284,-23.7135002 -16,-24.28125 z" id="6" fill="none" stroke="url(#E)"/>
 <path d="M 24.03125,5.3125 C 23.629097,5.31959 23.220202,5.339336 22.8125,5.375 22.79102,5.37688 22.7715,5.37304 22.75,5.375 9.3832209,5.6130282 0.97570212,22.010419 7.65625,33.1875 15.951602,23.656353 28.103471,17.700903 40.84375,16.0625 37.811665,9.8109828 31.430863,5.1819654 24.03125,5.3125 z" id="7" opacity="0.6" fill="url(#F)"/>
</svg>
