<?xml version="1.0"?>
<svg xmlns:rdf="http://www.w3.org/1999/02/22-rdf-syntax-ns#" xmlns="http://www.w3.org/2000/svg" xmlns:cc="http://creativecommons.org/ns#" xmlns:xlink="http://www.w3.org/1999/xlink" xmlns:dc="http://purl.org/dc/elements/1.1/" xmlns:svg="http://www.w3.org/2000/svg" id="svg2972" viewBox="0 0 45.717 46.296" version="1.1">
  <defs id="defs2974">
    <linearGradient id="linearGradient5784" y2="145.91" gradientUnits="userSpaceOnUse" y1="-35.774" x2="-150.66" x1="-150.66">
      <stop id="stop5490-9" stop-color="#fb9e00" offset="0"/>
      <stop id="stop5492-3" stop-color="#f44f00" offset="1"/>
    </linearGradient>
    <linearGradient id="linearGradient4009" x1="-138.55" gradientUnits="userSpaceOnUse" x2="-150.71" gradientTransform="matrix(.91463 0 0 .91463 535.32 843.08)" y1="-33.352" y2="69.331">
      <stop id="stop5509-79" stop-color="#fff" offset="0"/>
      <stop id="stop5511-9" stop-color="#fff" stop-opacity=".66667" offset="0"/>
      <stop id="stop5513-5" stop-color="#9dbbe1" stop-opacity=".089431" offset="1"/>
    </linearGradient>
  </defs>
  <g id="layer1" transform="translate(-145.62 -240.37)">
    <g id="g5977" transform="matrix(.26119 0 0 .26119 64.648 30.159)">
      <path id="path5778" transform="matrix(.96341 0 0 .97561 542.67 839.72)" fill="#f44800" d="m-59.822 55.066c0 50.17-40.671 90.841-90.841 90.841s-90.841-40.671-90.841-90.841 40.671-90.841 90.841-90.841 90.841 40.671 90.841 90.841z"/>
      <path id="path5780" transform="matrix(.91463 0 0 .91463 535.32 843.08)" fill="url(#linearGradient5784)" d="m-59.822 55.066c0 50.17-40.671 90.841-90.841 90.841s-90.841-40.671-90.841-90.841 40.671-90.841 90.841-90.841 90.841 40.671 90.841 90.841z"/>
      <g id="g4220" stroke-width="1.9" fill="#fff" transform="matrix(.75853 0 0 .75853 -178.85 340.67)">
        <path id="rect4189" d="m729.75 660.3c-6.5919 0-11.875 5.3085-11.875 11.906v25.188h12.719v-14.125c0-6.5978 5.3143-11.906 11.906-11.906h25.5c6.5919 0 11.906 5.3085 11.906 11.906v14.125h12.188v-25.188c0-6.5978-5.3143-11.906-11.906-11.906h-50.438z"/>
        <path id="rect4193" transform="translate(0 308.27)" d="m716.47 395.12c-6.5919 0-11.906 5.3085-11.906 11.906v14.969c0 6.5978 5.3143 11.906 11.906 11.906h75.906c5.877 0 10.735-4.2212 11.719-9.8125h-11.594c-6.5919 0-11.906-3.3938-11.906-7.625s5.3143-7.6562 11.906-7.6562h11.781v-1.7812c0-6.5978-5.3143-11.906-11.906-11.906h-75.906z"/>
        <path id="path4218" d="m716.47 749.22c-6.5919 0-11.906 5.3085-11.906 11.906v14.969c0 6.5978 5.3143 11.906 11.906 11.906h75.906c5.877 0 10.735-4.2212 11.719-9.8125h-11.594c-6.5919 0-11.906-3.3938-11.906-7.625s5.3143-7.6562 11.906-7.6562h11.781v-1.7812c0-6.5978-5.3143-11.906-11.906-11.906h-75.906z"/>
      </g>
      <path id="path5782" opacity=".7572" fill="url(#linearGradient4009)" d="m397.52 810.35c-45.16 0-81.909 36.056-83.062 80.938 37.387 15.04 95.243 25.784 166.03-2.0938-2.2099-43.915-38.505-78.844-82.969-78.844z"/>
    </g>
  </g>
  <metadata>
    <rdf:RDF>
      <cc:Work>
        <dc:format>image/svg+xml</dc:format>
        <dc:type rdf:resource="http://purl.org/dc/dcmitype/StillImage"/>
        <cc:license rdf:resource="http://creativecommons.org/licenses/publicdomain/"/>
        <dc:publisher>
          <cc:Agent rdf:about="http://openclipart.org/">
            <dc:title>Openclipart</dc:title>
          </cc:Agent>
        </dc:publisher>
        <dc:title>secure lock</dc:title>
        <dc:date>2010-08-04T09:38:44</dc:date>
        <dc:description>Set of web 2.0 icon, available as one download,look in my clip arts.</dc:description>
        <dc:source>http://openclipart.org/detail/77107/secure-lock-by-shokunin</dc:source>
        <dc:creator>
          <cc:Agent>
            <dc:title>shokunin</dc:title>
          </cc:Agent>
        </dc:creator>
        <dc:subject>
          <rdf:Bag>
            <rdf:li>arrow</rdf:li>
            <rdf:li>backward</rdf:li>
            <rdf:li>cart</rdf:li>
            <rdf:li>clip art</rdf:li>
            <rdf:li>clipart</rdf:li>
            <rdf:li>communicator</rdf:li>
            <rdf:li>computer</rdf:li>
            <rdf:li>desktop</rdf:li>
            <rdf:li>earth</rdf:li>
            <rdf:li>email</rdf:li>
            <rdf:li>forward</rdf:li>
            <rdf:li>globe</rdf:li>
            <rdf:li>home</rdf:li>
            <rdf:li>icons</rdf:li>
            <rdf:li>info</rdf:li>
            <rdf:li>information</rdf:li>
            <rdf:li>interface</rdf:li>
            <rdf:li>lock</rdf:li>
            <rdf:li>mail</rdf:li>
            <rdf:li>message</rdf:li>
            <rdf:li>messenger</rdf:li>
            <rdf:li>network</rdf:li>
            <rdf:li>networking</rdf:li>
            <rdf:li>pidgin</rdf:li>
            <rdf:li>planet</rdf:li>
            <rdf:li>play</rdf:li>
            <rdf:li>secure</rdf:li>
            <rdf:li>security</rdf:li>
            <rdf:li>server</rdf:li>
            <rdf:li>shopping</rdf:li>
            <rdf:li>sms.text</rdf:li>
            <rdf:li>unlock</rdf:li>
            <rdf:li>unsecured</rdf:li>
            <rdf:li>web</rdf:li>
            <rdf:li>web 2.0</rdf:li>
          </rdf:Bag>
        </dc:subject>
      </cc:Work>
      <cc:License rdf:about="http://creativecommons.org/licenses/publicdomain/">
        <cc:permits rdf:resource="http://creativecommons.org/ns#Reproduction"/>
        <cc:permits rdf:resource="http://creativecommons.org/ns#Distribution"/>
        <cc:permits rdf:resource="http://creativecommons.org/ns#DerivativeWorks"/>
      </cc:License>
    </rdf:RDF>
  </metadata>
</svg>
