<?xml version="1.0" encoding="UTF-8" standalone="no"?>
<!--part of the matt icon theme by sixsixfive released under CC0 (https://creativecommons.org/publicdomain/zero/1.0/) on openclipart-->
<svg xmlns="http://www.w3.org/2000/svg" xmlns:xlink="http://www.w3.org/1999/xlink" viewBox="0 0 128 128">
 <defs id="0">
  <linearGradient id="2">
   <stop id="F" stop-color="#e85752"/>
   <stop id="G" offset="1" stop-color="#af0400"/>
  </linearGradient>
  <linearGradient id="3">
   <stop id="H"/>
   <stop id="I" offset="1" stop-opacity="0"/>
  </linearGradient>
  <linearGradient id="4">
   <stop id="J" stop-color="#eee"/>
   <stop id="K" offset="1" stop-color="#dcdcdc"/>
  </linearGradient>
  <radialGradient cx="63.894" cy="117.35" r="53.91" id="5" xlink:href="#3" gradientUnits="userSpaceOnUse" gradientTransform="matrix(1,0,0,0.08641975,0,107.20963)"/>
  <radialGradient cx="60.05" cy="51.39" r="15.03" id="6" xlink:href="#4" gradientUnits="userSpaceOnUse" gradientTransform="matrix(-1.404511,1.1888571,-1,-1.1813958,199.73811,11.750541)"/>
  <radialGradient cx="64.7" cy="-15.174" r="55.27" id="7" xlink:href="#8" gradientUnits="userSpaceOnUse" gradientTransform="matrix(1.5330966,-3.1358239e-8,2.404893e-8,1.1240308,-33.828167,2.9909361)"/>
  <linearGradient id="8">
   <stop id="L" stop-color="#eee"/>
   <stop id="M" offset="1" stop-color="#eee" stop-opacity="0"/>
  </linearGradient>
  <linearGradient y1="8.707" x2="0" y2="120.54" id="9" xlink:href="#2" gradientUnits="userSpaceOnUse"/>
 </defs>
 <g id="1">
  <path d="m 117.80366,117.35108 a 53.91015,4.6589018 0 1 1 -107.8202997,0 53.91015,4.6589018 0 1 1 107.8202997,0 z" transform="translate(1.2996963,3.4536055)" id="A" opacity="0.443" fill="url(#5)"/>
  <path d="m 122.08898,64.625572 a 56.734098,55.918618 0 1 1 -113.4681952,0 56.734098,55.918618 0 1 1 113.4681952,0 z" transform="matrix(1.0119373,0,0,1.0266947,-2.1350421,-4.4029736)" id="B" fill="url(#9)"/>
  <path d="m 122.08898,64.625572 a 56.734098,55.918618 0 1 1 -113.4681952,0 56.734098,55.918618 0 1 1 113.4681952,0 z" transform="matrix(1.0119373,0,0,1.0266947,-2.1350421,-4.4029736)" id="C" fill="none" stroke="#9c0f0f" stroke-width="3.924"/>
  <g transform="translate(-0.00454736,5.8747942e-4)" id="D">
   <path d="m 65.34375,11.21875 c -29.979853,0 -54.21875,23.915681 -54.21875,53.40625 0,29.490569 24.238897,53.40625 54.21875,53.40625 29.979853,0 54.25,-23.917374 54.25,-53.40625 0,-29.488876 -24.270147,-53.40625 -54.25,-53.40625 z" transform="matrix(1.0119373,0,0,1.0266947,-2.1350421,-4.4029736)" id="N" fill="none" stroke="url(#7)" stroke-width="2.079"/>
  </g>
  <path d="m 63.884995,21.948708 c -3.799747,0.06314 -6.833193,3.173337 -6.785545,6.957205 l 0,29.317603 c -0.0352,2.478042 1.272021,4.791786 3.421524,6.04103 2.149505,1.249254 4.808555,1.24925 6.958062,0 2.149505,-1.249248 3.456719,-3.562988 3.421524,-6.04103 l 0,-29.317603 c 0.02338,-1.857187 -0.719783,-3.642428 -2.041415,-4.953073 -1.321633,-1.310632 -3.109164,-2.035044 -4.97415,-2.004132 z m -22.973098,9.705729 c -1.973329,0.0476 -3.850389,0.858914 -5.232921,2.261809 -15.57197,15.50598 -15.571968,40.896049 0,56.40203 15.571955,15.505984 41.070091,15.505964 56.642058,0 15.571956,-15.50598 15.571956,-40.896052 0,-56.40203 -2.969461,-2.948967 -7.763093,-2.928244 -10.724614,0.02863 -2.961521,2.956881 -2.969459,7.730199 0,10.679166 9.765541,9.724171 9.765546,25.290894 0,35.015067 -9.765559,9.724172 -25.427284,9.724164 -35.192832,0 -9.765554,-9.724171 -9.765553,-25.290895 0,-35.015067 2.238917,-2.169964 2.91024,-5.493368 1.696388,-8.3601 -1.213855,-2.866721 -4.064783,-4.690842 -7.188079,-4.609505 z" id="E" fill="#ddd"/>
 </g>
</svg>
